<?xml version="1.0" encoding="UTF-8"?>
<svg width="158px" height="83px" viewBox="0 0 158 83" version="1.1" xmlns="http://www.w3.org/2000/svg" xmlns:xlink="http://www.w3.org/1999/xlink">
    <!-- Generator: sketchtool 53 (72520) - https://sketchapp.com -->
    <title>1F721BF9-9D35-42ED-8E17-AB347CD68BD2</title>
    <desc>Created with sketchtool.</desc>
    <defs>
        <polygon id="path-1" points="0 82.1504081 157.209042 82.1504081 157.209042 -0.000289534884 0 -0.000289534884"></polygon>
    </defs>
    <g id="Asset-Artboard-Page" stroke="none" stroke-width="1" fill="none" fill-rule="evenodd">
        <g id="logo">
            <g>
                <path d="M50.0249067,31.3234279 C49.0079612,31.3234279 47.7755612,31.066707 47.7755612,30.079393 C47.7755612,29.8101256 48.0168703,29.3507302 48.2064703,29.0804977 C48.5272582,28.5940791 48.9811491,28.1887302 49.4905794,28.1887302 C50.0804461,28.1887302 51.4469067,29.1075209 51.5005309,30.5127302 C51.3923248,30.9701953 50.8034158,31.3234279 50.0249067,31.3234279 M56.0174158,26.9051256 C54.9458885,24.1130442 52.5959976,21.9183698 50.5467855,21.9183698 C48.9409309,21.9183698 46.9271491,24.1130442 45.8249794,26.3038581 C44.9918885,27.9551721 44.2114642,30.5909047 44.2114642,32.0694628 C44.2114642,35.191614 46.9079976,37.8225209 49.6457067,37.8225209 C51.2793309,37.8225209 52.4628945,37.3293465 53.0652097,35.8228 C53.2366158,36.4887302 53.2797067,38.9661837 50.7296824,41.7534395 C48.6986642,43.9751372 46.5297552,45.5231837 44.9200703,46.2441256 C41.6173915,47.7748 39.9904703,47.534486 36.5077673,47.0258698 C35.7034036,46.9033 35.1671612,46.9756837 35.1671612,47.6319628 C35.1671612,49.2649395 35.3155855,49.7098581 36.8074885,50.4578233 C39.7759733,51.9489279 43.6101067,52.8976372 45.8134885,52.8686837 C46.2894036,52.8686837 46.7835127,52.7779628 47.0803612,52.6573233 C52.8258158,50.2879628 57.2210885,45.0126372 57.3675976,37.424893 C57.4729309,32.0694628 56.7604945,28.8845791 56.0174158,26.9051256" id="Fill-1" fill="#FFFFFF"></path>
                <path d="M157.159344,27.1688919 C157.031029,19.0706012 156.404775,7.5770314 156.09452,2.84217093 C155.972908,0.990112791 155.365805,0.0500895349 154.895635,-9.65116279e-05 C154.332581,0.05395 153.799211,0.611787209 153.012084,1.90697326 C152.050678,3.48879884 150.634423,6.04732209 150.477381,7.76426395 C150.477381,10.7927988 152.882811,30.3914151 153.108799,36.9879849 C153.148059,38.1374384 153.527259,38.4433802 153.899756,38.457857 C154.504944,38.499357 156.151975,37.187764 156.714072,35.5383802 C157.347029,33.6650895 157.212968,30.7736012 157.159344,27.1688919" id="Fill-3" fill="#FFFFFF"></path>
                <path d="M80.4559939,11.4791895 C81.4451697,11.4791895 82.5004182,12.9500267 82.5004182,13.2810616 C82.5004182,13.590864 81.4681515,14.1091314 80.5967576,14.1091314 C79.8680424,14.1091314 79.2082727,13.590864 79.2082727,13.1411198 C79.2082727,12.5726663 80.0088061,11.4791895 80.4559939,11.4791895 M80.2903333,16.5489453 C81.7736182,16.5489453 82.8767455,15.7430733 83.3727697,14.3706779 C83.5834364,13.6613174 83.7031333,12.9963523 83.7031333,12.2860267 C83.7031333,10.3905384 81.9603455,8.70930581 80.8342364,8.70930581 C79.9609273,8.70930581 77.9844909,12.4993174 77.9844909,14.2519686 C77.9844909,15.4602942 78.9257879,16.5489453 80.2903333,16.5489453" id="Fill-5" fill="#FFFFFF"></path>
                <path d="M124.61393,19.1510919 L131.500815,15.5541035 C132.146221,15.1719174 132.586705,13.9616616 132.586705,12.719557 C132.586705,12.5130221 132.498608,12.4840686 132.294645,12.6008477 L126.403639,15.7229988 C125.520754,16.2267895 125.141554,16.52115 124.90599,16.9062314 C124.640742,17.3492198 124.408051,18.3828593 124.408051,19.0323826 C124.408051,19.1211733 124.436778,19.2408477 124.61393,19.1510919" id="Fill-7" fill="#FFFFFF"></path>
                <path d="M144.405967,9.55503721 C144.824428,8.98465349 145.661349,7.72421163 145.838501,7.18567674 C145.870101,7.06503721 145.899785,6.97431628 145.899785,6.88456047 C145.899785,6.64521163 145.781046,6.43481628 145.661349,6.22538605 C145.156707,5.44364186 143.491482,3.40435116 142.519543,0.653769767 C142.398888,0.353618605 142.311749,0.204990698 142.13364,0.204990698 C141.716137,0.204990698 140.457882,1.34189767 139.548185,2.87643256 C138.72084,4.27102558 137.956695,6.10474651 137.956695,6.67513023 C137.956695,6.82568837 137.986379,7.00616512 138.017022,7.18567674 C138.195131,8.23379302 138.966937,10.9534907 139.026307,11.8240256 C139.652561,19.5623279 140.650355,26.443607 140.710682,30.2529209 C140.529701,30.5849209 139.532864,31.2440953 137.185846,31.2440953 C135.025555,31.2440953 133.275107,30.2982814 133.38427,28.2753977 C133.453216,26.9763512 133.080719,26.4001767 132.724501,26.659793 C123.067349,33.706107 113.380513,33.0063977 107.270222,33.0063977 C93.72244,33.0063977 86.6852158,29.5097814 85.5504885,24.6504209 C85.3522703,23.8030488 85.1128764,22.4740837 85.0812764,22.2878163 C84.9050824,21.2754093 84.68484,21.0022814 83.9503794,20.9549907 C83.4553127,20.924107 82.8185248,21.4790488 82.5312521,21.9336186 C81.7383794,23.1950256 81.4482339,23.887014 80.4964036,25.0953395 C79.6757612,26.1357349 78.7411673,26.5584558 77.3794945,26.6076767 C76.2495552,26.6462814 75.2278218,26.6559326 74.4167552,25.4823512 C72.9574097,23.3629558 72.8779309,23.123607 72.42404,23.1882698 C71.95004,23.123607 70.2283188,26.9551186 69.7141006,28.2840837 C69.4565127,28.8641186 69.478537,28.9683512 69.7581491,29.3447465 C71.0920521,31.1234558 73.9580764,34.154886 73.46684,37.8734791 C73.0847673,39.9764674 70.4763309,43.8137698 65.5055552,46.2053279 C61.8792158,47.9531535 60.5797855,47.5285023 57.0970824,47.019886 C56.2936764,46.9002116 55.7583915,46.9725953 55.7583915,47.6288744 C55.7583915,49.2589558 55.9058582,49.7058047 57.3996764,50.4537698 C60.3662461,51.9468047 64.201337,52.8945488 66.4028036,52.8646302 C66.8796764,52.8646302 67.3728279,52.7748744 67.6696764,52.6542349 C73.2149976,50.3678744 77.4886582,45.3685721 77.9138218,38.2035488 C77.9138218,38.2035488 78.1177855,35.4375256 77.7558218,34.0853977 C80.5308764,34.0853977 81.8915915,32.2005256 82.1759915,31.8395721 C83.0263188,35.7038977 86.7560764,41.334386 108.63381,41.334386 C111.828282,41.334386 127.248125,41.6982349 131.500719,35.3120605 C131.731495,36.0455488 133.938707,39.0895256 137.660804,39.0895256 C143.653313,39.0895256 146.210998,34.702107 145.875846,26.7128744 C145.706355,22.6806186 145.35301,17.3937116 144.405967,9.55503721" id="Fill-9" fill="#FFFFFF"></path>
                <path d="M94.3558764,47.3817081 C92.8658885,46.1096849 91.4027127,44.8936384 90.5246158,44.1649756 C90.0707248,43.7885802 90.2114885,43.6939988 89.5478885,44.4583709 C88.8948218,45.2150221 88.0722642,46.218743 87.3320582,47.131743 C85.9454885,45.9523709 84.6135006,44.8453826 83.7928582,44.1649756 C83.3399248,43.7885802 83.4816461,43.6939988 82.8199612,44.4583709 C81.9792097,45.4292779 80.8559733,46.8122895 79.9970279,47.8816384 C79.6053794,48.3661267 79.6168703,48.2734756 80.0018158,48.6479407 C80.820543,49.4441616 82.5978036,50.8899058 83.7976461,51.8550221 C84.2477067,52.2150105 84.1672703,52.2391384 84.5943491,51.7507895 C85.2703976,50.9767663 86.3141552,49.7674756 87.0198885,48.9172081 C87.9152218,49.7404523 89.4511733,50.9893128 90.5294036,51.8550221 C90.9794642,52.2150105 90.8971127,52.2391384 91.3232339,51.7507895 C92.25304,50.6881965 93.8828339,48.799464 94.3664097,48.1566965 C94.7350764,47.6644872 94.774337,47.737836 94.3558764,47.3817081" id="Fill-11" fill="#FFFFFF"></path>
                <path d="M137.158747,47.3817081 C135.667801,46.1096849 134.206541,44.8936384 133.327486,44.1649756 C132.873595,43.7885802 133.015316,43.6939988 132.351716,44.4583709 C131.51288,45.4292779 130.390601,46.8122895 129.530698,47.8816384 C129.13905,48.3661267 129.150541,48.2734756 129.535486,48.6479407 C130.353256,49.4441616 132.130516,50.8899058 133.332274,51.8550221 C133.782335,52.2150105 133.701898,52.2391384 134.128019,51.7507895 C135.05591,50.6881965 136.685704,48.799464 137.168322,48.1566965 C137.537947,47.6644872 137.577207,47.737836 137.158747,47.3817081" id="Fill-13" fill="#FFFFFF"></path>
                <path d="M19.4246158,9.33450814 C20.2423855,10.1307291 22.0186885,11.5755081 23.2214036,12.5406244 C23.6705067,12.902543 23.5910279,12.9257058 24.0171491,12.437357 C24.69224,11.6623686 25.7379127,10.454043 26.4426885,9.6047407 C27.339937,10.4279849 28.8720582,11.6758802 29.9502885,12.5406244 C30.4003491,12.902543 30.3208703,12.9257058 30.7469915,12.437357 C31.6739248,11.3737988 33.3037188,9.48796163 33.7872945,8.84519419 C34.1569188,8.35201977 34.197137,8.42343837 33.7767612,8.0692407 C32.2877309,6.79625233 30.8245552,5.5792407 29.9455006,4.85154302 C29.4935248,4.47611279 29.6342885,4.37960116 28.9726036,5.14493837 C28.3185794,5.90255465 27.4941067,6.9072407 26.7539006,7.8202407 C25.3682885,6.63990349 24.035343,5.53098488 23.2147006,4.85154302 C22.7627248,4.47611279 22.9025309,4.37960116 22.2418036,5.14493837 C21.4010521,6.11681047 20.2787733,7.50078721 19.4179127,8.5672407 C19.0272218,9.05172907 19.0367976,8.96100814 19.4246158,9.33450814" id="Fill-15" fill="#FFFFFF"></path>
                <path d="M20.6991491,59.6850105 C19.2082036,58.4149174 17.746943,57.1969407 16.8678885,56.469243 C16.4139976,56.0918826 16.5547612,55.9982663 15.8930764,56.7636035 C15.2380945,57.5183244 14.415537,58.5220453 13.6753309,59.4360105 C12.2887612,58.2576035 10.9567733,57.1486849 10.1361309,56.469243 C9.68415515,56.0918826 9.82396121,55.9982663 9.16419152,56.7636035 C8.32439758,57.7325802 7.20020364,59.116557 6.34030061,60.1849407 C5.9496097,60.6694291 5.96014303,60.5767779 6.34700364,60.951243 C7.16381576,61.747464 8.94107636,63.1932081 10.1409188,64.1583244 C10.5900218,64.5183128 10.5124582,64.5434058 10.9385794,64.0540919 C11.6146279,63.2800686 12.659343,62.071743 13.3650764,61.2214756 C14.2604097,62.0447198 15.7954036,63.2926151 16.8726764,64.1583244 C17.322737,64.5183128 17.241343,64.5434058 17.6674642,64.0540919 C18.5953552,62.9914988 20.2251491,61.1046965 20.7087248,60.4619291 C21.0773915,59.9677895 21.1176097,60.0411384 20.6991491,59.6850105" id="Fill-17" fill="#FFFFFF"></path>
                <path d="M30.4657515,48.0470593 C35.3704545,44.4520012 36.8661879,41.32985 36.8661879,37.7270709 C36.8661879,34.9108616 33.7349152,33.1697919 32.0352182,32.7856756 C33.5299939,31.2192919 33.5874485,29.7166058 33.5874485,27.8857802 C33.5874485,19.1321756 28.3035455,15.2166988 27.1305152,14.4494314 C26.8384545,14.3036988 26.5387333,14.4204779 26.3644545,14.7138733 C26.1595333,15.0989547 24.3612061,21.0903965 24.3612061,21.4455593 C24.3612061,21.7119314 24.3918485,21.8016872 24.5374,21.9203965 C26.9418727,23.8390477 28.7114727,26.1997221 28.828297,29.0062802 C28.2125758,29.8652337 25.201,30.556257 22.6251212,31.0397802 C22.5063818,31.0639081 22.3876424,31.129536 22.3024182,31.278164 C21.8628909,32.0763151 20.8564788,35.6723384 20.8564788,36.2649198 C20.8564788,36.7667802 21.1198121,37.030257 21.8245879,37.030257 C25.1665273,36.9742802 29.4267818,38.5300477 30.8909152,39.8011058 C29.8059818,41.4562802 21.5124182,45.1652221 15.7650485,45.1652221 C8.73452727,45.1652221 5.11967879,42.1579198 5.11967879,36.72335 C5.11967879,35.2824314 5.71241818,33.6069895 6.50912121,31.8002919 L6.50529091,31.7964314 C7.35753333,29.9144547 8.63589697,27.4090128 8.66941212,27.3163616 C8.91072121,26.6533267 8.6703697,26.4245942 8.5162,26.3493151 C8.39841818,26.2836872 6.42389697,25.6081058 5.7986,26.2556988 C5.609,26.4535477 0.000478787879,33.7507919 0.000478787879,40.0964314 C0.000478787879,48.1059314 4.60450303,53.6929895 13.7742485,53.6929895 C20.5778242,53.6929895 26.2964667,51.1006872 30.4657515,48.0470593" id="Fill-19" fill="#FFFFFF"></path>
                <path d="M33.6582133,56.0903384 L27.7882739,59.2047686 C26.9120921,59.705664 26.5328921,60.0000244 26.2973285,60.3822105 C26.0359103,60.8251988 25.8022618,61.8540128 25.8022618,62.503536 C25.8022618,62.5894314 25.8300315,62.7091058 26.007183,62.6203151 L32.8710861,59.0368384 C33.5136194,58.6536872 33.9521891,57.4472919 33.9521891,56.2109779 C33.9521891,56.0034779 33.862177,55.9735593 33.6582133,56.0903384" id="Fill-21" fill="#FFFFFF"></path>
                <path d="M46.6145006,72.247543 L46.5761976,72.247543 L45.6186218,77.227543 L47.5720764,77.227543 L46.6145006,72.247543 Z M45.791943,68.2905663 L47.4188642,68.2905663 L50.4639552,82.0347872 L48.5105006,82.0347872 L47.9359552,79.0805663 L45.2738945,79.0805663 L44.6993491,82.0347872 L42.7458945,82.0347872 L45.791943,68.2905663 Z" id="Fill-23" fill="#FFFFFF"></path>
                <polygon id="Fill-25" fill="#FFFFFF" points="53.4316739 68.2909523 55.3860861 68.2909523 55.3860861 80.0653709 59.2537345 80.0653709 59.2537345 82.0342081 53.4316739 82.0342081"></polygon>
                <path d="M70.0554764,80.065564 L70.898143,80.065564 C71.2936218,80.065564 71.6029188,80.0066919 71.8279491,79.8908779 C72.0501067,79.7760291 72.2195976,79.6148547 72.3345067,79.4083198 C72.4494158,79.20275 72.5193188,78.9595407 72.5461309,78.6757965 C72.5700703,78.3930174 72.5834764,78.0832151 72.5834764,77.7492849 C72.5834764,77.401843 72.5643248,77.0997616 72.5260218,76.8420756 C72.4877188,76.5853547 72.4072824,76.3691686 72.2866279,76.1954477 C72.1650158,76.0217267 71.9955248,75.8895058 71.7791127,75.79975 C71.561743,75.7090291 71.2735127,75.6636686 70.916337,75.6636686 L70.0554764,75.6636686 L70.0554764,80.065564 Z M70.0554764,73.9274244 L70.9364461,73.9274244 C71.5885552,73.9274244 72.0252097,73.7633547 72.2483248,73.4352151 C72.4704824,73.1070756 72.5834764,72.6274128 72.5834764,71.9971919 C72.5834764,71.3795174 72.4589915,70.9162616 72.2100218,70.6074244 C71.9610521,70.2985872 71.5119491,70.1441686 70.85984,70.1441686 L70.0554764,70.1441686 L70.0554764,73.9274244 Z M68.1020218,68.2911453 L70.9555976,68.2911453 C71.5808945,68.2911453 72.1133067,68.3866919 72.5547491,68.5806802 C72.9942764,68.7737035 73.3552824,69.0304244 73.6368097,69.3518081 C73.9173794,69.674157 74.1184703,70.0437965 74.2400824,70.462657 C74.3616945,70.8805523 74.4220218,71.3158198 74.4220218,71.7645988 L74.4220218,72.2674244 C74.4220218,72.6409244 74.3932945,72.9555523 74.33584,73.2122733 C74.2783855,73.4709244 74.1912461,73.6948314 74.0772945,73.8888198 C73.9623855,74.081843 73.8216218,74.2526686 73.6559612,74.4003314 C73.4903006,74.5479942 73.2987855,74.6869709 73.0814158,74.8153314 C73.5410521,75.0344128 73.8790764,75.3586919 74.0964461,75.7891337 C74.3128582,76.2215058 74.4220218,76.7967151 74.4220218,77.5166919 L74.4220218,78.28975 C74.4220218,79.4990407 74.1318764,80.4255523 73.5496703,81.0692849 C72.9693794,81.7130174 72.0405309,82.0344012 70.7640824,82.0344012 L68.1020218,82.0344012 L68.1020218,68.2911453 Z" id="Fill-27" fill="#FFFFFF"></path>
                <polygon id="Fill-29" fill="#FFFFFF" points="78.2715721 68.2909523 84.0936327 68.2909523 84.0936327 70.1439756 80.2250267 70.1439756 80.2250267 74.1781616 83.5956933 74.1781616 83.5956933 76.0311849 80.2250267 76.0311849 80.2250267 80.0653709 84.0936327 80.0653709 84.0936327 82.0342081 78.2715721 82.0342081"></polygon>
                <mask id="mask-2" fill="white">
                    <use xlink:href="#path-1"></use>
                </mask>
                <g id="Clip-32"></g>
                <polygon id="Fill-31" fill="#FFFFFF" mask="url(#mask-2)" points="87.4257091 82.0345942 89.3801212 82.0345942 89.3801212 68.2913384 87.4257091 68.2913384"></polygon>
                <path d="M95.2395273,74.4294779 L96.3503152,74.4294779 C96.6950424,74.4294779 96.9698667,74.380257 97.1738303,74.2847105 C97.3768364,74.1881988 97.5338788,74.0492221 97.6430424,73.8697105 C97.7512485,73.6892337 97.8249818,73.467257 97.8632848,73.2028151 C97.9006303,72.9393384 97.9207394,72.6343616 97.9207394,72.2859547 C97.9207394,71.9394779 97.9006303,71.6345012 97.8632848,71.3700593 C97.8249818,71.1065826 97.745503,70.8807453 97.6238909,70.6944779 C97.5022788,70.5082105 97.3337455,70.3692337 97.1163758,70.2785128 C96.8980485,70.188757 96.6126909,70.1443616 96.2555152,70.1443616 L95.2395273,70.1443616 L95.2395273,74.4294779 Z M93.2860727,68.2913384 L96.4269212,68.2913384 C98.7260606,68.2913384 99.8741939,69.6357453 99.8741939,72.3245593 C99.8741939,73.1227105 99.7497091,73.807943 99.5007394,74.380257 C99.2508121,74.953536 98.8132,75.4138965 98.1888606,75.7613384 L100.29457,82.0345942 L98.2271636,82.0345942 L96.4087273,76.1666872 L95.2395273,76.1666872 L95.2395273,82.0345942 L93.2860727,82.0345942 L93.2860727,68.2913384 Z" id="Fill-33" fill="#FFFFFF" mask="url(#mask-2)"></path>
                <path d="M109.77524,78.945836 C109.77524,79.3965453 109.691931,79.8144407 109.52627,80.2004872 C109.359652,80.5865337 109.133664,80.9243244 108.845434,81.2138593 C108.559119,81.5033942 108.223967,81.7321267 107.840937,81.8990919 C107.457907,82.066057 107.048064,82.1500221 106.614282,82.1500221 C106.180501,82.1500221 105.772573,82.066057 105.389543,81.8990919 C105.006513,81.7321267 104.671361,81.5033942 104.384088,81.2138593 C104.096816,80.9243244 103.86987,80.5865337 103.70421,80.2004872 C103.537592,79.8144407 103.45524,79.3965453 103.45524,78.945836 L103.45524,68.2909523 L105.407737,68.2909523 L105.407737,78.7528128 C105.407737,79.2421267 105.524561,79.6021151 105.753422,79.833743 C105.98324,80.0653709 106.270513,80.1811849 106.614282,80.1811849 C106.960925,80.1811849 107.246282,80.0653709 107.477058,79.833743 C107.706876,79.6021151 107.821785,79.2421267 107.821785,78.7528128 L107.821785,68.2909523 L109.77524,68.2909523 L109.77524,78.945836 Z" id="Fill-34" fill="#FFFFFF" mask="url(#mask-2)"></path>
                <polygon id="Fill-35" fill="#FFFFFF" mask="url(#mask-2)" points="114.907272 70.1438791 112.64835 70.1438791 112.64835 68.2908558 119.120605 68.2908558 119.120605 70.1438791 116.861684 70.1438791 116.861684 82.0341116 114.907272 82.0341116"></polygon>
                <polygon id="Fill-36" fill="#FFFFFF" mask="url(#mask-2)" points="122.051648 82.0345942 124.004145 82.0345942 124.004145 68.2913384 122.051648 68.2913384"></polygon>
            </g>
        </g>
    </g>
</svg>