<?xml version="1.0" encoding="UTF-8"?>
<svg id="Layer_1" xmlns="http://www.w3.org/2000/svg" version="1.1" viewBox="0 0 423.5 423.5">
  <!-- Generator: Adobe Illustrator 29.5.0, SVG Export Plug-In . SVG Version: 2.1.0 Build 137)  -->
  <defs>
    <style>
      .st0 {
        fill: #F4EFE6;
      }

      .st1 {
        fill: #C4965B;
      }

      .st2 {
        fill: #fff;
      }

      .st3 {
        fill: #d55d26;
      }
    </style>
  </defs>
  <path class="st1" d="M421.42,211.75c0,115.79-93.87,209.67-209.67,209.67S2.09,327.54,2.09,211.75,95.96,2.09,211.75,2.09s209.67,93.86,209.67,209.66"/>
  <path class="st0" d="M330.05,165.8c-18.27-48.28-64.92-82.62-119.6-82.62s-101.33,34.34-119.61,82.62h239.2Z"/>
  <path class="st0" d="M90.85,257.53c18.27,48.28,64.92,82.62,119.61,82.62s101.32-34.34,119.6-82.62H90.85Z"/>
  <path class="st0" d="M335.93,257.53c-18.57,51.35-67.81,88.15-125.48,88.15s-106.92-36.8-125.49-88.15h-4.95c18.77,53.97,70.15,92.82,130.44,92.82s111.66-38.85,130.44-92.82h-4.95Z"/>
  <path class="st0" d="M84.96,165.8c18.57-51.35,67.81-88.15,125.49-88.15s106.91,36.8,125.48,88.15h4.95c-18.77-53.97-70.15-92.82-130.44-92.82s-111.67,38.85-130.44,92.82h4.95Z"/>
  <path class="st3" d="M211.75,423.5C94.99,423.5,0,328.51,0,211.75S94.99,0,211.75,0s211.75,94.99,211.75,211.75-94.99,211.75-211.75,211.75M211.75,7.78C99.28,7.78,7.78,99.28,7.78,211.75s91.5,203.97,203.97,203.97,203.97-91.5,203.97-203.97S324.22,7.78,211.75,7.78"/>
  <path class="st3" d="M20.14,254.12c-3.04-13.74-4.66-27.98-4.66-42.65,0-14.32,1.52-28.45,4.42-41.9h383.69c2.92,13.5,4.46,27.52,4.46,41.9s-1.52,28.68-4.66,42.65H20.14Z"/>
  <polygon class="st2" points="72.45 215.19 72.45 226.14 73.27 230.26 63.8 239.73 41.56 239.73 31.67 229.85 31.67 198.54 42.38 187.84 66.44 187.84 71.63 203.49 62.98 200.61 53.51 200.61 49.38 202.66 46.91 206.37 46.91 222.43 48.56 225.73 51.86 227.38 56.39 227.38 58.45 225.32 58.45 216.67 55.15 210.08 75.09 210.08 72.45 215.19"/>
  <path class="st2" d="M121.05,193.6v32.54l.83,3.71-9.89,9.88h-22.24l-9.88-9.88.82-3.71v-32.54l-1.89-5.77h18.61l-1.89,5.77v29.24l1.57,3.05,2.96,1.48h2.88l2.97-1.48,1.57-3.05v-29.24l-1.89-5.77h17.38l-1.9,5.77ZM94.69,184.8h-4.53l-2.88-2.88v-4.53l2.88-2.88h4.53l2.88,2.88v4.53l-2.88,2.88ZM111.58,184.8h-4.53l-2.88-2.88v-4.53l2.88-2.88h4.53l2.88,2.88v4.53l-2.88,2.88Z"/>
  <polygon class="st2" points="173.37 193.6 173.37 239.73 163.07 239.73 146.6 212.55 144.95 209.25 145.36 212.55 145.36 233.96 147.25 239.73 130.7 239.73 132.59 233.96 132.59 193.6 130.28 187.84 146.6 187.84 159.78 209.67 161.43 212.96 161.01 209.67 161.01 193.6 159.11 187.84 175.26 187.84 173.37 193.6"/>
  <path class="st2" d="M210.03,239.73l.83-5.76-1.07-4.53-.82-.82h-12.77l-.82.82-.99,4.53.82,5.76h-17.96l2.97-5.76,10.87-41.19-1.23-4.94h26.36l-1.23,4.94,10.87,41.19,2.88,5.76h-18.7ZM202.78,201.02l-.42-2.88-.41,2.88-3.71,15.65.83.82h6.84l.82-.82-3.95-15.65Z"/>
  <polygon class="st2" points="265.63 193.6 252.45 219.96 252.45 233.15 254.68 239.73 235.81 239.73 238.04 233.15 238.04 220.37 224.61 193.6 220.32 187.84 238.86 187.84 239.69 193.19 245.04 203.9 245.86 206.37 246.69 203.9 252.04 193.19 252.87 187.84 269.91 187.84 265.63 193.6"/>
  <path class="st2" d="M301.06,239.73h-32.78l1.89-5.77v-40.36l-1.89-5.76h32.78l10.71,10.71v30.48l-10.71,10.71ZM296.94,205.55l-1.9-3.87-3.87-1.89h-5.36l-.82.82v25.53l1.23,1.24h4.94l3.87-1.9,1.9-3.87v-16.06Z"/>
  <polygon class="st2" points="319.76 239.73 321.65 233.97 321.65 193.6 319.76 187.83 338.38 187.83 336.48 193.6 336.48 233.97 338.38 239.73 319.76 239.73"/>
  <polygon class="st2" points="389.2 193.6 389.2 239.73 378.9 239.73 362.43 212.55 360.78 209.25 361.2 212.55 361.2 233.96 363.09 239.73 346.53 239.73 348.42 233.96 348.42 193.6 346.12 187.84 362.43 187.84 375.61 209.67 377.26 212.96 376.84 209.67 376.84 193.6 374.95 187.84 391.1 187.84 389.2 193.6"/>
  <path class="st2" d="M179.02,105.55c-.11,0-.25.05-.32.18-.06.1-.05.2-.04.25.02.06.06.14.16.2.07.01.14.02.18.02.17,0,.25-.05.31-.15.06-.1.06-.2.04-.25-.02-.06-.06-.14-.15-.2l-.18-.05Z"/>
  <path class="st2" d="M227.13,139.06c.36.2.82.08,1.04-.28.2-.35.08-.79-.25-1.01-.37.23-.76.47-1.15.7.02.23.14.45.36.58"/>
  <path class="st2" d="M238.62,145.25c.36.2.83.08,1.04-.28.21-.36.08-.82-.28-1.03-.36-.2-.82-.08-1.04.28-.21.36-.08.82.28,1.03"/>
  <path class="st2" d="M182.8,103.7c-3.81-4.15-7.08-.35-7.08-.35l-13.55,16.43s1.08.88,2.75,2.1c12.56,7.38,22.28,12.78,28.54,16.18l18.8-10.94c-14.36-7.13-25.67-19.3-29.44-23.42M180.6,106.8c-.51.87-1.64,1.18-2.52.68-.87-.5-1.18-1.62-.66-2.49.51-.87,1.63-1.18,2.52-.67.87.5,1.18,1.61.66,2.49"/>
  <path class="st2" d="M228.17,138.78c-.21.36-.67.49-1.04.28-.22-.12-.34-.34-.36-.58-1.15.71-2.31,1.42-3.51,2.13l-.16.1c3.98,2.25,7.86,4.45,10.13,5.74,6.16,3.52,6.38,4.96,6.74,5.03,2.77-.68,4.01-4.77,4.37-6.25.26-1.06-.08-1.39-2.88-2.67-2.36-1.08-7.21-3.64-11.62-6.02-.64.41-1.26.82-1.91,1.23.34.21.45.65.25,1"/>
  <path class="st2" d="M212.32,127.07s0,0-.01.01l.03-.02s-.01,0-.01,0"/>
  <path class="st2" d="M185.85,147.73l2.13,3.65c.78,1.34,2.51,1.8,3.86,1.02l20.7-12.05c1.34-.78,1.8-2.5,1.02-3.85l-.62-1.07.87-.51,7.81,5.22c24.38-14.48,38.99-28.85,39.11-38.09l-13.34,6.61-60.51,35.22c-1.34.78-1.8,2.51-1.02,3.85M205.98,138.31c-.44-.75-.18-1.71.57-2.15s1.71-.18,2.15.57c.43.75.18,1.71-.57,2.15s-1.71.18-2.15-.57M189.87,147.68c-.44-.75-.18-1.71.57-2.15s1.71-.18,2.16.57c.44.75.18,1.71-.57,2.15-.75.44-1.71.18-2.15-.57"/>
  <path class="st2" d="M170.74,281.51c-.9.22-1.94.31-3.07-.12v-2.23c1.49.39,2.56.24,3.91-.47.94-.51,1.49-1.06,2-2.01h2.13v12.88s5.3,0,5.3,0v2.72h-13.93v-2.73h5.43v-8.99c-.59.49-1,.78-1.78.94"/>
  <path class="st2" d="M184.62,288.62c-.08-3.16,7.16-1.49,4.95.72,1.93,1.25,6.82,1.29,9.07.33,1.74-.74,3.87-1.86,3.77-4.34-6.83,2.21-18.29,1.94-18.29-3.67,0-6.92,21.28-7.67,21.4,2.37.14,12.41-20.77,8.71-20.91,4.6M202.12,281.69c-.14-3.81-14.85-4.43-14.85.09,0,3.69,14.99,3.84,14.85-.09"/>
  <path class="st2" d="M229.83,280.37c.02,3.44-8.15.9-4.86-.72-1.92-1.25-6.73-1.21-8.96-.25-1.74.76-3.79,1.79-3.67,4.26,6.82-2.23,18.06-1.94,18.08,3.67.02,6.62-21.51,7.67-21.4-2.36.15-12.23,20.79-8.63,20.81-4.6M212.34,287.2c-.06,3.71,14.64,3.83,14.64,0s-14.58-3.94-14.64,0"/>
  <path class="st2" d="M252.47,286.62c-.37-4.32-12.04-3.24-15.71-1.07h-2.85v-8.84s19.75,0,19.75,0v2.7s-16.9,0-16.9,0v3.67c3.44-2.07,19.04-3.21,19.02,3.08-.02,8.27-21.96,7.2-22.22,3.3-.24-3.93,8.17-1.51,4.36.23,2.07,1.09,14.87.84,14.55-3.07"/>
  <path class="st0" d="M350.8,257.65c-19.25,58.37-74.23,100.5-139.05,100.5s-119.79-42.13-139.05-100.5H20.44c20.68,86.5,98.48,150.81,191.31,150.81s170.64-64.31,191.31-150.81h-52.26Z"/>
  <path class="st0" d="M211.75,65.35c64.82,0,119.79,42.13,139.05,100.5h52.26C382.39,79.35,304.59,15.03,211.75,15.03S41.11,79.35,20.43,165.85h52.27c19.26-58.37,74.23-100.5,139.05-100.5"/>
  <path class="st2" d="M83.52,343.49l-3.31-.76.3-4.31c-1.05-.44-2.63-1.69-3.71-2.88-4.37-4.82-4.69-12.16.6-16.96,5.27-4.78,12.57-3.75,16.94,1.07,4.37,4.82,4.69,12.17-.6,16.96-3.16,2.86-6.6,3.48-9.98,2.87l-.24,4.02ZM83.97,336.1c2.43.74,5.51-.05,7.57-1.92,3.48-3.15,3.83-8.53.37-12.34-3.45-3.81-8.84-4-12.32-.84-3.47,3.15-3.83,8.53-.37,12.34.47.52.98.99,1.54,1.39l.1-1.2,3.23.95-.13,1.62Z"/>
  <path class="st2" d="M115.68,357.59c-2.59,3.43-6.75,6.24-13.4,1.23-6.64-5.01-5.09-9.79-2.5-13.22l8.51-11.28,2.61,1.96-8.51,11.28c-2.01,2.66-2.37,5.45,1.85,8.64,4.23,3.19,6.82,2.07,8.82-.59l8.51-11.28,2.61,1.97-8.51,11.28Z"/>
  <path class="st2" d="M140.15,380.75l-3.28-1.68.52-8.13-9.02-4.61-6.39,5.12-3.18-1.63,19.46-15.53,3.24,1.65-1.34,24.81ZM137.96,358.69l-6.77,5.41,6.36,3.25.41-8.66Z"/>
  <polygon class="st2" points="156.37 362.53 159.48 363.55 153.41 382 166.49 386.3 165.47 389.41 149.29 384.09 156.37 362.53"/>
  <rect class="st2" x="166.56" y="378.72" width="22.7" height="3.27" transform="translate(-230.43 478.24) rotate(-78.41)"/>
  <polygon class="st2" points="208.09 372.73 207.81 375.99 199.88 375.3 198.21 394.65 194.95 394.37 196.62 375.02 188.7 374.33 188.98 371.08 208.09 372.73"/>
  <polygon class="st2" points="215.42 372.64 222.93 381.89 229.2 371.81 233.34 371.56 224.69 385.03 225.28 394.79 222.03 394.98 221.43 385.22 211.49 372.88 215.42 372.64"/>
  <polygon class="st2" points="256.94 373.54 256.88 373.56 261.81 388.67 258.71 389.68 251.67 368.11 254.77 367.09 266.51 378.09 269.5 362.29 272.6 361.27 279.65 382.84 276.54 383.86 271.62 368.75 271.55 368.78 268.57 384.42 256.94 373.54"/>
  <polygon class="st2" points="297.34 348.57 298.91 351.44 285.46 358.76 288.31 363.99 295.08 360.3 296.65 363.18 289.87 366.86 293.18 372.95 307.13 365.36 308.7 368.23 291.87 377.38 281.03 357.44 297.34 348.57"/>
  <path class="st2" d="M334.22,349.34l-2.91,2.27-7.15-3.91-8,6.23,1.94,7.96-2.82,2.19-5.85-24.22,2.87-2.23,21.93,11.7ZM313.3,341.99l2.04,8.43,5.64-4.39-7.68-4.04Z"/>
  <polygon class="st2" points="335.77 315.06 338.16 317.3 332.7 323.09 346.86 336.41 344.61 338.78 330.46 325.48 325.01 331.27 322.63 329.03 335.77 315.06"/>
  <path class="st2" d="M148.45,65.11l-10.75,5.91-.36-.65c1.97-1.29,3-2.25,1.14-5.64l-7.97-14.49-.06.03.41,19.5-14.02-8.72-.05.03,5.71,10.39c2.87,5.21,5.23,4.19,7.73,2.82l.36.65-10.2,5.61-.36-.65c2.74-1.51,4.52-3.16,1.82-8.06l-6.3-11.45c-1.53-.92-2.66-1.37-4.56-.32l-1.46.81-.36-.65,7.87-4.33,12.93,7.91-.07-14.97,7.35-4.05.36.65c-2.1,1.37-3.16,2.34-1.28,5.76l6.22,11.31c1.87,3.39,3.25,3.02,5.54,1.98l.36.65Z"/>
  <path class="st2" d="M174.29,57.08l-23.1,7.23-.22-.71c2.75-.86,4.79-1.92,3.78-5.13l-4.33-13.83c-.92-2.95-3.19-2.63-5.94-1.77l-.22-.71,22.71-7.11,1.86,5.93-.65.2c-2.3-2.39-5.06-4.15-10.14-2.57l-4.23,1.32,2.81,8.98,3.25-1.02c3.33-1.07,3.77-3.29,3.96-4.65l.65-.2,2.25,7.18-.65.2c-1.05-1.59-2.65-2.87-5.99-1.82l-3.25,1.02,3.46,11.05,4.22-1.32c4.34-1.36,6.26-5.59,6.84-9.34l.65-.2,2.27,7.27Z"/>
  <path class="st2" d="M208.88,52.53l-15.23,1.71-.08-.74,1.23-.14c1.41-.16,2.91-.98,2.7-2.85-.07-.65-.39-1.27-.76-1.81l-2.98-4.31-8.15.92-.7,2.6c-.18.67-.38,1.38-.3,2.06.26,2.34,2.16,4.31,4.9,4l1.73-.2.08.74-14.77,1.65-.08-.74,1.23-.14c3.94-.44,5.73-4.45,6.58-7.72l4.66-17.6.62-.07,11.84,17.49c2.32,3.44,3.04,4.89,6,4.56l1.41-.16.08.74ZM188.06,35.98l-2.28,8.54,7.54-.84-5.26-7.7Z"/>
  <path class="st2" d="M224.62,53.84l-13.05-.62.03-.74c2.7-.06,4.23-.33,4.41-4.2l.82-17.32-1.82-.08c-4.73-.22-5.81,2.82-6.38,4.59l-.68-.03.26-5.63,21.96,1.04-.27,5.63-.68-.03c-.41-1.82-1.2-4.95-5.93-5.18l-1.82-.08-.82,17.32c-.18,3.86,1.26,4.28,4,4.59l-.03.74Z"/>
  <path class="st2" d="M255.23,59.3l-23.68-5.08.15-.73c2.82.61,5.11.69,5.82-2.61l3.04-14.17c.64-3.03-1.48-3.87-4.3-4.47l.15-.73,23.28,4.99-1.3,6.08-.67-.14c-.83-3.22-2.36-6.11-7.57-7.23l-4.34-.93-1.97,9.21,3.33.71c3.43.7,4.9-1.01,5.74-2.1l.67.14-1.58,7.36-.66-.14c-.13-1.9-.9-3.81-4.32-4.53l-3.33-.72-2.43,11.32,4.33.93c4.45.95,8.21-1.79,10.56-4.77l.67.14-1.6,7.44Z"/>
  <path class="st2" d="M271.03,65.33l-11.47-4.81.29-.69c2.38.8,3.8,1.02,5.3-2.54l5.01-11.93c1.49-3.57.34-4.42-1.9-5.56l.29-.69,15.24,6.39c5.22,2.19,6,5.78,5.06,8.03-1.15,2.74-3.36,3.93-6.25,3.86-1.37-.08-3.06-.78-4.91-1.56l-5.85-2.46-2.39,5.71c-1.5,3.57-.37,4.41,1.9,5.56l-.29.68ZM277.11,54.79c3.11,1.31,5.54.72,7.09-2.99.85-2.03,1.01-4.88-2.62-6.4l-5.45-2.29-4.02,9.59,4.99,2.1ZM284.34,69.47c.09.04.22.12.18.21-.34.8-2.44.62-3.81.05-1.54-.64-2.4-1.88-3.21-3.56-.95-1.98-.62-6.1-.92-8.34-.22-1.57-.55-1.74-.41-2.05.09-.23.67-.09.95.03,2.92,1.22,3.57,3.58,4.25,6.98.56,2.89.89,5.81,2.43,6.46l.54.23Z"/>
  <path class="st2" d="M299.51,80.61l-10.53-6.63.39-.63c2.22,1.18,3.58,1.63,5.64-1.65l2.67-4.25-1.94-11.79c-.5-2.99-.9-4.55-2.82-5.76l-.76-.48.39-.63,12.29,7.73-.39.63-.52-.33c-1.38-.84-2.26-.84-2.8.03-.34.55-.24,1.49-.13,2.07l1.46,9.48,8.2-2.27c.93-.25,1.79-.7,2.35-1.59.69-1.1-.17-2.12-1.29-2.83l-2.57-1.61.4-.63,11.85,7.45-.4.63-1.07-.68c-2.46-1.55-4.06-1.52-7.72-.46l-10.25,2.99-3,4.77c-2.06,3.27-1.09,4.29.97,5.8l-.4.63Z"/>
</svg>