<?xml version="1.0" encoding="UTF-8"?>
<svg id="Layer_1" xmlns="http://www.w3.org/2000/svg" version="1.1" viewBox="0 0 536.89 159.16">
  <!-- Generator: Adobe Illustrator 29.5.0, SVG Export Plug-In . SVG Version: 2.1.0 Build 137)  -->
  <defs>
    <style>
      .st0 {
        fill: #F4EFE6;
      }
    </style>
  </defs>
  <path class="st0" d="M49.11,59.58c-8.53-1.69-14.73-6.45-19.14-13.68-2.18-3.56-4.33-7.14-6.5-10.71-3.38-5.57-9.5-6.93-14.94-3.3-3.35,2.23-5.44,5.31-6.11,9.31-.07.42-.07.85-.14,1.69,1.7-2.57,3.71-4.02,6.43-4.36,4.1-.51,8.09,2.15,9.25,6.17,1.14,3.96-.72,8.05-4.47,9.86-3.61,1.74-8.28.48-10.61-2.87-5.28-7.6-3.12-17.37,5.14-22.11,10.2-5.86,20.29-5.2,30.05,1.21,2.9,1.91,5.18,4.47,6.99,7.42,2.48,4.03,4.93,8.07,7.42,12.09.6.97,1.34,1.87,1.95,2.71,1.95-.54,3.72-1.04,5.72-1.6v-10.7c.02-6.85.03-13.7.11-20.55.04-3.52-1.52-6-4.62-7.48-3.56-1.7-7.26-2.87-11.32-2.76-4.67.12-9.35.03-14.13.03V0h499.24v9.89h-32.68c10.35,6.42,15.81,15.45,14.29,27.72-1.53,12.4-9.56,19.42-21.23,23.25,1,.37,1.71.6,2.39.88,9.25,3.83,14.67,10.83,16.7,20.51.94,4.48,1.61,9.01,2.42,13.52,1.07,6.01,5.34,9.38,11.36,8.71,5.01-.55,8.69-3.17,11.03-7.82-1.33.52-2.52,1.2-3.78,1.44-4.9.94-9.2-2.25-9.99-7.28-.69-4.45,2.62-8.76,7.19-9.36,4.77-.63,9.06,2.8,9.62,7.68,1.08,9.5-4.4,16.33-14.2,17.7-13.71,1.91-27.32-7.55-30.12-21.05-1.06-5.12-1.81-10.31-2.8-15.44-.87-4.55-4.44-7.42-9.04-7.97-3.18-.38-6.31-1.18-9.43-1.93-.92-.22-1.73-.92-2.54-1.64,2.37-.32,4.5-1.57,7.04-.32,3.12,1.53,6.55.83,9.8.2,12.19-2.34,19.55-11.51,19.63-24,.04-5.25-.65-10.25-3.4-14.79-3.91-6.48-9.5-10.1-17.26-9.97-3.88.07-7.76.04-11.64,0-4.09-.04-7.84,1.25-11.37,3.13-2.61,1.4-3.93,3.67-3.92,6.8.05,26.65.06,53.31,0,79.96,0,3.54,1.58,5.95,4.62,7.27,3.02,1.31,6.24,2.19,9.58,3.32v1.84h-80.16v-1.92c4.09-.85,8.23-1.64,11.98-4.04-1.59-3.69-3.15-7.33-4.71-10.96-3.69-8.54-7.4-17.07-11.04-25.63-.46-1.06-1.01-1.37-2.13-1.36-10.38.04-20.76.05-31.14,0-1.15,0-1.68.37-2.12,1.4-4.81,11.23-9.67,22.45-14.5,33.67-1.03,2.39-.84,3.15,1.57,4.07,2.95,1.13,5.99,1.99,9.15,3.02v1.78h-65.69v-1.88c2.57-.76,5.14-1.44,7.65-2.28,1.18-.39,2.33-.96,3.37-1.65,2.16-1.42,3.29-3.48,3.36-6.09,0-.35.01-.7.01-1.06V14.23l-.36-.16c-15.43,30.57-30.85,61.14-46.37,91.9-12.89-29.97-25.69-59.75-38.5-89.53-.16,0-.32,0-.49-.01-.17,1.28-.48,2.55-.49,3.83-.03,15.52-.02,31.04-.02,46.56,0,10.99.05,21.97-.03,32.95-.03,3.62,1.53,6.16,4.75,7.5,2.68,1.11,5.53,1.82,8.3,2.69.38.12.78.18,1.21.28v2.07h-30.77c-.49-2.05-.45-2,1.46-2.54,2.65-.76,5.33-1.49,7.87-2.55,3.28-1.38,4.84-4.02,4.84-7.65-.03-26.35-.03-52.7,0-79.05,0-3.89-1.74-6.45-5.2-8.06-4.89-2.28-9.99-2.93-15.55-2.35v1.85c-.02,17.23.41,34.48-.21,51.69-.54,15.15-6.35,28.39-17.9,38.66-16.79,14.92-44.75,14.19-60.54-6.89-6.76-9.03-10.71-19.27-11.37-30.41-.73-12.2-.47-24.46-.58-36.7-.05-5.69.07-11.39.1-17.08,0-.35-.05-.69-.08-1.12-5.01-.53-9.81-.06-14.47,1.94-4.02,1.72-5.93,4.46-5.91,8.98.11,25.99.1,51.99.01,77.99-.02,4.26,1.78,7.05,5.63,8.51,2.81,1.06,5.71,1.86,8.68,2.8v1.98h-45.32v-2.04c2.72-.84,5.46-1.51,8.07-2.51,4.76-1.83,6.18-4.13,6.16-9.19-.05-12.35-.09-24.69-.13-37.03v-2.47c-1.13.69-2.08,1.03-2.71,1.69-1.66,1.75-3.33,3.52-4.72,5.48-5.88,8.28-10.36,17.35-14.71,26.49-2.08,4.37-4.06,8.76-7.33,12.43-4.87,5.45-10.83,8.04-18.17,7.19-5.14-.61-8.32-3.67-9.83-8.4-.74-2.31-1.08-4.82-1.16-7.26-.15-4.32,3.48-8.16,7.65-8.47,4.43-.33,8.45,2.9,9.1,7.32.63,4.32-2.3,8.48-6.64,9.45-2,.45-3.64.13-6.48-1.24.49,2.99,3.68,5.79,7.08,6.23,2.63.34,5.1-.1,7.41-1.46,4.73-2.79,8.36-6.69,10.83-11.52,6.2-12.13,12.22-24.35,18.32-36.53.11-.22.19-.46.35-.85M114.32,10.03v70.73c0,.9.02,1.82.06,2.72.85,17.32,17.63,29.95,34.55,26.01,13.42-3.12,22.18-14.28,22.2-28.41.03-23.11,0-46.23,0-69.35v-1.71h-56.81,0ZM314.18,10.02v87.67c0,.7.03,1.41.08,2.11.32,5.19,6.3,10.19,11.54,9.63.1,0,.2-.03.29-.07,2.21-.81,4.5-1.47,6.6-2.52,1.01-.51,1.96-1.64,2.42-2.71,13.29-30.79,26.51-61.6,39.74-92.42.22-.52.4-1.07.62-1.69,0,0-61.29,0-61.29,0ZM379.42,9.95c.26.71.39,1.13.56,1.53,12.95,30.16,25.94,60.31,38.82,90.5,1.27,2.98,3.19,4.92,6.16,5.95,1.28.44,2.56.88,3.87,1.26.41.12.93.2,1.32.07,2.18-.76,4.43-1.4,6.47-2.45,2.69-1.38,4.07-3.65,4.06-6.85-.05-26.74-.05-53.49,0-80.23,0-2.81-1.1-4.94-3.38-6.33-3.34-2.05-7.03-3.39-10.97-3.42-15.06-.09-30.12-.04-45.18-.04h-1.73ZM226.54,10.03c10.76,24.96,21.45,49.75,32.27,74.84,12.6-25.1,25.05-49.88,37.58-74.84h-69.85ZM353.94,66.06h32.28c-5.35-12.44-10.64-24.75-16.08-37.38-5.49,12.67-10.81,24.92-16.21,37.38"/>
  <path class="st0" d="M31.05,142.18c.19-2.15-1.38-4.05-3.51-4.23-.08,0-.18,0-.26,0-.22,0-.43.02-.64.07.06-.28.11-.59.07-.9-.17-2.03-1.86-3.56-3.86-3.56h-.33c-1.83.18-3.35,1.25-4.16,2.76-.83-1.51-2.35-2.58-4.17-2.76h-.33c-1.98,0-3.69,1.54-3.87,3.56-.01.31,0,.6.08.89-.21-.05-.42-.08-.65-.08h-.26c-2.14.18-3.71,2.08-3.53,4.23.17,1.83,1.24,3.38,2.75,4.19-1.5.84-2.58,2.36-2.75,4.18-.18,2.15,1.39,4.06,3.53,4.24.3.03.61-.02.89-.08-.07.29-.11.6-.08.91.19,2.16,2.08,3.74,4.19,3.56,1.82-.17,3.36-1.25,4.17-2.75.82,1.5,2.34,2.57,4.17,2.75,2.14.18,4.01-1.41,4.2-3.56.05-.3,0-.6-.07-.89.29.06.6.11.91.07,2.13-.17,3.7-2.08,3.51-4.22-.15-1.84-1.24-3.36-2.75-4.19,1.51-.81,2.6-2.34,2.75-4.18M6.9,142.04c-.13-1.45.94-2.72,2.37-2.85.9-.08,1.69.6,1.77,1.5.03.26-.06.51-.22.71-.15.19-.4.32-.65.34-.12,0-.25-.02-.35-.1-.1-.09-.16-.21-.17-.34,0-.06.07-.15.13-.16.35-.02.6-.34.58-.69-.04-.34-.33-.61-.69-.56-.38.03-.72.2-.97.5-.23.3-.35.65-.31,1.04.03.46.25.88.61,1.19.36.29.8.44,1.27.4.58-.05,1.13-.34,1.52-.79.38-.47.56-1.05.51-1.63,0-.14-.05-.26-.07-.39.14.04.26.06.39.08.59.06,1.17-.13,1.63-.51.45-.39.73-.93.78-1.52.05-.46-.1-.92-.41-1.28-.3-.36-.72-.58-1.18-.62-.38-.03-.74.08-1.03.32-.29.25-.47.59-.5.97-.04.34.23.66.58.7.34.03.65-.24.67-.59.01-.07.08-.13.15-.13.14,0,.26.06.33.17.09.1.13.22.11.35-.02.25-.13.48-.33.65-.2.16-.44.25-.7.22-.91-.08-1.57-.89-1.5-1.79.13-1.44,1.41-2.52,2.84-2.38,2.11.18,3.7,2.02,3.63,4.12l-6.68,6.73h-.22c-2.02-.04-3.74-1.59-3.91-3.65M14.06,157.87c-1.43.13-2.7-.95-2.82-2.39-.09-.9.58-1.71,1.48-1.79.25-.02.5.06.71.23.19.16.31.4.33.65.01.12-.03.24-.11.34-.08.11-.19.17-.33.17-.07,0-.15-.07-.15-.13-.04-.35-.33-.61-.68-.57-.36.02-.61.33-.59.69.04.38.22.72.51.96s.65.36,1.03.33c.46-.04.87-.26,1.18-.63.31-.36.45-.82.41-1.27-.07-.61-.34-1.14-.79-1.53-.4-.34-.91-.51-1.44-.51h-.19c-.13,0-.26.03-.39.07.03-.14.07-.26.08-.4.05-.6-.13-1.18-.51-1.63-.38-.46-.93-.74-1.52-.8-.46-.04-.91.11-1.27.41-.36.3-.58.72-.61,1.19-.04.38.09.74.31,1.04.25.29.59.47.97.49.36.04.65-.23.69-.56.02-.35-.23-.66-.58-.7-.06,0-.14-.1-.13-.15.01-.14.08-.24.17-.34.09-.08.23-.13.35-.12.25.03.5.15.65.35.16.19.25.45.22.71-.08.9-.86,1.58-1.77,1.5-1.43-.14-2.5-1.41-2.37-2.86.18-2.12,2-3.72,4.09-3.65l6.71,6.75c.06,2.12-1.52,3.95-3.64,4.15M12.17,146.35l6.17-6.21,6.18,6.21-6.18,6.21-6.17-6.21ZM29.8,150.66c.13,1.45-.95,2.73-2.38,2.84-.89.09-1.69-.59-1.76-1.5-.03-.25.04-.51.22-.7.15-.18.38-.33.64-.35.13,0,.25.04.36.12.09.08.17.2.18.32,0,.07-.08.16-.14.17-.35.03-.6.33-.57.69s.32.62.69.58.71-.2.95-.5c.24-.3.37-.67.33-1.05-.03-.47-.26-.88-.61-1.19-.36-.3-.81-.44-1.28-.4-.59.05-1.11.33-1.51.79-.39.46-.57,1.04-.51,1.63,0,.13.04.26.06.4-.13-.05-.25-.07-.4-.09h-.19c-.53,0-1.03.17-1.43.51-.46.39-.74.92-.78,1.53-.05.46.09.91.4,1.27.3.36.72.59,1.18.63.37.03.75-.09,1.04-.33.3-.24.46-.58.5-.96.04-.35-.22-.67-.58-.69-.35-.04-.65.22-.69.57,0,.07-.08.13-.16.13-.12,0-.24-.07-.31-.17-.09-.09-.12-.21-.12-.34.02-.26.13-.5.33-.65.2-.17.45-.25.7-.23.9.08,1.56.88,1.49,1.79-.12,1.44-1.4,2.49-2.83,2.39-2.13-.2-3.69-2.03-3.64-4.15l6.71-6.74c2.1-.07,3.94,1.53,4.12,3.67M25.89,145.71h-.23l-6.68-6.71c-.07-2.14,1.51-3.98,3.64-4.17,1.43-.14,2.7.94,2.83,2.38.09.89-.58,1.7-1.49,1.79-.26.03-.5-.07-.69-.22-.2-.17-.33-.4-.34-.65-.02-.14.02-.25.1-.35.08-.11.2-.16.34-.17.06,0,.14.06.15.13.04.35.33.62.68.59.35-.04.62-.36.58-.7-.04-.38-.2-.72-.5-.97-.29-.24-.65-.35-1.03-.32-.47.04-.88.25-1.18.62-.3.36-.44.82-.4,1.28.04.59.32,1.13.78,1.52.46.39,1.01.57,1.62.51.13,0,.25-.03.38-.08-.02.14-.06.26-.06.4-.06.61.12,1.18.51,1.65.39.45.91.73,1.51.78.46.06.91-.1,1.28-.4.35-.3.58-.73.61-1.19.04-.37-.08-.74-.33-1.04-.24-.29-.57-.47-.95-.5-.36-.05-.65.22-.69.57-.03.36.22.66.57.7.06,0,.14.09.14.16-.01.13-.09.24-.18.33-.1.08-.22.12-.36.1-.26-.02-.49-.14-.64-.33-.18-.19-.25-.45-.22-.71.07-.91.85-1.56,1.76-1.5,1.43.13,2.51,1.4,2.38,2.86-.18,2.07-1.88,3.6-3.91,3.65"/>
  <path class="st0" d="M18.34,142.77c-1.96,0-3.56,1.6-3.56,3.58s1.6,3.58,3.56,3.58,3.56-1.6,3.56-3.58-1.6-3.58-3.56-3.58M18.34,148.67c-1.27,0-2.29-1.04-2.29-2.31s1.02-2.29,2.29-2.29,2.3,1.01,2.3,2.29-1.03,2.31-2.3,2.31"/>
  <g>
    <path class="st0" d="M117.35,133.94l1.48,4.7-.92.31c-1.52-2.66-3.47-3.99-5.87-4-.59,0-.93.17-1.02.51l-.08.66v12.13c0,1.42.25,2.3.75,2.64l.03.02c.22.14.53.23.95.26l1.04.09v.82h-8.21v-.82l1.04-.09c.81-.07,1.32-.42,1.52-1.07.14-.38.21-1,.21-1.86v-12.23c0-.58-.22-.92-.66-1.01l-.51-.05c-2.2,0-4.01,1.09-5.43,3.28l-.43.72-.89-.31,1.52-4.7h15.48Z"/>
    <path class="st0" d="M136.13,141.75h9.54v-3.97c0-1.34-.2-2.19-.61-2.53-.22-.18-.51-.31-.89-.38l-.23-.02-.68-.08v-.83h7.47v.83l-.66.08c-.8.1-1.3.42-1.5.96-.16.39-.23,1.05-.23,1.96v10.48c0,1.35.2,2.2.61,2.54.22.18.52.3.9.37h.03l.19.02.66.09v.82h-7.47v-.82l.68-.09c.8-.1,1.29-.42,1.48-.95h.03c.15-.42.22-1.08.22-1.98v-5.36h-9.54v5.36c0,1.35.2,2.2.61,2.54.22.18.52.3.9.37l.22.02.66.09v.82h-7.47v-.82l.68-.09c.8-.1,1.29-.42,1.48-.95h.03c.15-.42.22-1.08.22-1.98v-10.48c0-1.34-.2-2.19-.61-2.53-.22-.18-.51-.31-.89-.38h-.11s-.08,0-.12-.02l-.68-.08v-.83h7.47v.83l-.66.08c-.8.1-1.3.42-1.5.96-.16.39-.23,1.05-.23,1.96v3.99Z"/>
    <path class="st0" d="M179.06,133.94l1.83,4.8-.85.35c-.27-.32-.53-.62-.78-.89s-.5-.52-.74-.74c-1.41-1.34-3.08-2.1-5.01-2.29l-1.58-.09c-1.48,0-2.4.28-2.75.83-.19.3-.29.76-.29,1.38v4.54h2.02c1.21,0,2.03-.27,2.46-.81v-.03c.34-.44.59-1.3.77-2.56h.91v7.98h-.91c-.16-1.71-.72-2.77-1.68-3.18h-.03c-.42-.17-.95-.26-1.57-.26h-1.96v5.62c0,.76.11,1.3.34,1.6.42.5,1.31.74,2.67.74,2.32,0,4.23-.52,5.73-1.55.16-.1.33-.22.48-.34.16-.12.32-.25.48-.4.76-.69,1.54-1.57,2.37-2.62l.83.38-2.43,5.67h-15.54v-.82l.68-.09c.8-.1,1.29-.42,1.48-.95h.03c.15-.42.22-1.08.22-1.98v-10.48c0-1.34-.2-2.19-.61-2.53-.22-.18-.51-.31-.89-.38h-.11s-.08,0-.12-.02l-.68-.08v-.83h15.23v.03Z"/>
    <path class="st0" d="M226.68,133.94l1.48,4.7-.92.31c-1.52-2.66-3.47-3.99-5.87-4-.59,0-.93.17-1.02.51l-.08.66v12.13c0,1.42.25,2.3.75,2.64l.03.02c.22.14.53.23.95.26l1.04.09v.82h-8.21v-.82l1.04-.09c.81-.07,1.32-.42,1.52-1.07.14-.38.21-1,.21-1.86v-12.23c0-.58-.22-.92-.66-1.01l-.51-.05c-2.2,0-4.01,1.09-5.43,3.28l-.43.72-.89-.31,1.52-4.7h15.48Z"/>
    <path class="st0" d="M252.47,143.27l4.43,6.26.38.46c.62.67,1.45,1.1,2.47,1.29v.82h-4.45l-5.99-8.55h-3.84v4.71c0,1.4.23,2.28.69,2.62.23.16.57.26,1.04.31l.95.09v.82h-7.76v-.82l.68-.09c.8-.1,1.29-.42,1.48-.95h.03c.15-.42.22-1.08.22-1.98v-10.48c0-1.34-.2-2.19-.61-2.53-.22-.18-.51-.31-.89-.38h-.11s-.08,0-.12-.02l-.68-.08v-.83h10.85c2.7,0,4.54.76,5.52,2.29.42.66.64,1.43.64,2.3,0,1.43-.55,2.59-1.65,3.49l-.34.26c-.19.14-.39.26-.59.36s-.41.18-.63.25-.47.14-.75.2c-.29.06-.61.12-.98.18h0ZM245.47,142.39h4.48c1.44,0,2.5-.27,3.19-.83.91-.72,1.37-1.7,1.39-2.93,0-2.4-1.71-3.6-5.11-3.6-1.51,0-2.59.14-3.25.43-.44.2-.67.58-.69,1.14v5.79h0Z"/>
    <path class="st0" d="M279.68,133.94l5.65,14.29c.16.42.31.77.43,1.06.13.29.24.52.33.69.34.59.82.96,1.44,1.12h.02c.1.02.21.05.33.08.13.03.27.06.43.09v.82h-7.48v-.82l.77-.14c.39-.07.65-.15.78-.26.36-.22.54-.53.56-.94,0-.22-.08-.56-.25-1.01l-.05-.13-1.33-3.44h-6.88l-.85,2.29c-.34.85-.51,1.51-.51,1.98,0,.52.22.93.66,1.22.21.11.57.22,1.06.31l.64.12v.82h-7.15v-.82l.3-.07c.83-.16,1.46-.5,1.89-1.03l.1-.14c.23-.29.51-.8.84-1.52s.72-1.66,1.16-2.82l4.58-11.75h2.53ZM274.85,144.2h6l-3.05-8-2.95,8Z"/>
    <path class="st0" d="M308.78,149.14l4.58-11.62.08-.22c.12-.37.18-.66.18-.9,0-.92-.67-1.45-2.01-1.6l-.43-.03v-.83h7.12v.83c-1.06.1-1.79.35-2.19.74-.09.09-.17.18-.24.27-.08.1-.15.2-.22.31l-.02.03v.03c-.12.18-.26.42-.4.72s-.31.66-.48,1.07l-5.83,14.15h-1.6l-6-14.55c-.24-.6-.47-1.07-.66-1.42-.38-.63-.92-1.03-1.6-1.2-.08-.02-.18-.04-.28-.05-.1-.02-.21-.03-.33-.05l-.26-.05v-.83h7.96v.83c-.35,0-.65.03-.92.06-.26.04-.48.08-.66.14l.08-.03h-.03l-.05.03c-.43.13-.66.45-.72.96l.1.66.13.43,4.7,12.1v.02Z"/>
    <path class="st0" d="M345.94,133.94l1.83,4.8-.85.35c-.27-.32-.53-.62-.78-.89s-.5-.52-.74-.74c-1.41-1.34-3.08-2.1-5.01-2.29l-1.58-.09c-1.48,0-2.4.28-2.75.83-.19.3-.29.76-.29,1.38v4.54h2.02c1.21,0,2.03-.27,2.46-.81v-.03c.34-.44.6-1.3.77-2.56h.91v7.98h-.91c-.17-1.71-.72-2.77-1.68-3.18h-.03c-.43-.17-.95-.26-1.57-.26h-1.97v5.62c0,.76.11,1.3.34,1.6.43.5,1.32.74,2.67.74,2.31,0,4.22-.52,5.72-1.55.17-.1.33-.22.48-.34.15-.12.31-.25.48-.4.76-.69,1.54-1.57,2.37-2.62l.83.38-2.43,5.67h-15.54v-.82l.68-.09c.8-.1,1.29-.42,1.48-.95h.03c.15-.42.22-1.08.22-1.98v-10.48c0-1.34-.2-2.19-.61-2.53-.22-.18-.51-.31-.89-.38h-.11s-.08,0-.12-.02l-.68-.08v-.83h15.23l.02.03Z"/>
    <path class="st0" d="M377.3,146.39l-2.14,5.7h-13.81v-.82l.68-.09c.8-.1,1.29-.42,1.48-.95h.03c.15-.42.22-1.08.22-1.98v-10.48c0-1.34-.2-2.19-.61-2.53-.22-.18-.51-.31-.89-.38h-.11s-.08,0-.12-.02l-.68-.08v-.83h7.65v.83l-.85.08c-.8.07-1.3.41-1.52,1.01-.14.36-.21,1-.21,1.91v11.03c0,.8.11,1.33.31,1.6.35.44,1.01.66,1.98.66.57,0,1.17-.08,1.78-.24,1.1-.28,2.14-.8,3.12-1.55l.08-.05c.42-.32.76-.63,1.04-.94.24-.23.5-.54.8-.92s.64-.83,1.01-1.35l.74.35.02.04Z"/>
    <path class="st0" d="M404.02,133.94l1.83,4.8-.85.35c-.27-.32-.53-.62-.78-.89s-.5-.52-.74-.74c-1.41-1.34-3.08-2.1-5.01-2.29l-1.58-.09c-1.48,0-2.4.28-2.75.83-.19.3-.29.76-.29,1.38v4.54h2.02c1.21,0,2.03-.27,2.46-.81v-.03c.34-.44.6-1.3.77-2.56h.91v7.98h-.91c-.17-1.71-.72-2.77-1.68-3.18h-.03c-.43-.17-.95-.26-1.57-.26h-1.97v5.62c0,.76.11,1.3.34,1.6.43.5,1.32.74,2.67.74,2.31,0,4.22-.52,5.72-1.55.17-.1.33-.22.48-.34.15-.12.31-.25.48-.4.76-.69,1.54-1.57,2.37-2.62l.83.38-2.43,5.67h-15.54v-.82l.68-.09c.8-.1,1.29-.42,1.48-.95h.03c.15-.42.22-1.08.22-1.98v-10.48c0-1.34-.2-2.19-.61-2.53-.22-.18-.51-.31-.89-.38h-.11s-.08,0-.12-.02l-.68-.08v-.83h15.23l.02.03Z"/>
    <path class="st0" d="M431.52,143.27l4.43,6.26.38.46c.63.67,1.45,1.1,2.47,1.29v.82h-4.45l-5.99-8.55h-3.84v4.71c0,1.4.23,2.28.69,2.62.22.16.57.26,1.04.31l.95.09v.82h-7.76v-.82l.68-.09c.8-.1,1.29-.42,1.48-.95h.03c.15-.42.22-1.08.22-1.98v-10.48c0-1.34-.2-2.19-.61-2.53-.22-.18-.51-.31-.89-.38h-.11s-.08,0-.12-.02l-.68-.08v-.83h10.85c2.7,0,4.54.76,5.52,2.29.43.66.64,1.43.64,2.3,0,1.43-.55,2.59-1.65,3.49l-.34.26c-.19.14-.39.26-.59.36s-.41.18-.63.25-.47.14-.76.2c-.28.06-.61.12-.98.18h.02ZM424.51,142.39h4.48c1.44,0,2.5-.27,3.19-.83.91-.72,1.37-1.7,1.39-2.93,0-2.4-1.7-3.6-5.11-3.6-1.51,0-2.59.14-3.25.43-.44.2-.67.58-.69,1.14v5.79h-.01Z"/>
  </g>
  <rect class="st0" x="38.81" y="145.08" width="46.84" height="2.14"/>
  <path class="st0" d="M508.47,150.53c-.19,2.15,1.39,4.05,3.52,4.23.08.02.17.02.25.02.23,0,.43-.03.64-.07-.06.28-.1.59-.07.9.17,2.03,1.86,3.56,3.86,3.56h.33c1.83-.18,3.35-1.25,4.16-2.76.83,1.51,2.35,2.58,4.17,2.76h.34c1.98,0,3.68-1.53,3.87-3.56.01-.31-.01-.6-.08-.89.21.04.42.07.65.07h.26c2.14-.19,3.71-2.08,3.53-4.23-.17-1.83-1.24-3.38-2.75-4.19,1.5-.84,2.58-2.36,2.75-4.18.18-2.15-1.39-4.06-3.53-4.24-.3-.02-.61.02-.89.08.07-.29.11-.6.08-.91-.19-2.16-2.08-3.74-4.19-3.56-1.83.18-3.36,1.25-4.17,2.75-.82-1.5-2.34-2.57-4.17-2.75-2.14-.18-4.01,1.41-4.2,3.56-.04.3,0,.6.08.89-.3-.06-.6-.11-.91-.07-2.13.17-3.71,2.08-3.52,4.22.15,1.84,1.24,3.36,2.75,4.19-1.51.81-2.6,2.34-2.75,4.18M532.62,150.66c.13,1.45-.94,2.72-2.37,2.85-.9.09-1.69-.6-1.77-1.5-.03-.26.06-.51.21-.71.16-.19.4-.32.66-.34.12,0,.25.02.35.1.1.09.16.21.17.34,0,.06-.07.15-.13.16-.35.02-.6.34-.58.69.03.34.33.61.69.56.38-.03.72-.19.97-.5.23-.29.35-.65.31-1.04-.03-.46-.25-.88-.61-1.19-.36-.29-.8-.44-1.27-.4-.58.05-1.13.34-1.51.79-.38.47-.56,1.05-.51,1.63,0,.14.04.26.07.4-.14-.05-.26-.06-.4-.08-.59-.06-1.17.13-1.63.51-.46.39-.73.93-.79,1.52-.05.46.1.92.41,1.28.3.36.72.58,1.18.62.39.03.74-.08,1.03-.32.29-.25.47-.59.5-.97.04-.34-.23-.66-.58-.7-.34-.03-.65.24-.67.59-.01.07-.08.13-.15.13-.14,0-.26-.06-.33-.17-.09-.1-.13-.21-.11-.35.02-.25.13-.48.33-.65.2-.16.44-.25.69-.22.91.08,1.57.89,1.5,1.78-.13,1.44-1.41,2.52-2.84,2.38-2.12-.18-3.7-2.02-3.63-4.12l6.68-6.73h.22c2.02.04,3.74,1.59,3.91,3.65M525.46,134.83c1.43-.13,2.7.95,2.83,2.39.08.9-.58,1.71-1.49,1.79-.25.02-.5-.05-.7-.23-.19-.16-.32-.4-.33-.66-.01-.12.03-.24.11-.34.08-.11.19-.17.33-.17.07,0,.15.07.15.13.04.35.33.61.68.57.35-.02.61-.33.59-.68-.03-.39-.21-.72-.51-.96-.29-.24-.65-.36-1.03-.33-.46.04-.87.27-1.18.63-.3.36-.45.82-.41,1.27.07.61.34,1.14.79,1.53.4.34.91.51,1.43.51h.19c.13,0,.26-.03.39-.07-.03.14-.07.26-.08.4-.06.6.13,1.18.51,1.63.38.46.93.74,1.51.8.46.04.91-.11,1.27-.41.36-.3.58-.73.61-1.19.04-.38-.08-.74-.31-1.04-.25-.28-.59-.47-.97-.49-.36-.04-.65.23-.69.57-.02.35.23.66.58.69.07,0,.14.1.13.15,0,.14-.07.24-.17.34-.09.08-.23.13-.35.12-.26-.03-.5-.15-.66-.35-.15-.19-.24-.45-.21-.71.08-.9.86-1.57,1.77-1.49,1.43.13,2.5,1.41,2.37,2.85-.18,2.12-2,3.72-4.09,3.66l-6.71-6.75c-.06-2.12,1.52-3.95,3.64-4.15M527.36,146.35l-6.17,6.21-6.18-6.21,6.18-6.21,6.17,6.21ZM509.73,142.05c-.13-1.45.95-2.72,2.38-2.84.89-.09,1.69.59,1.76,1.49.03.25-.04.51-.22.7-.15.18-.38.33-.64.35-.13,0-.25-.04-.35-.12s-.17-.2-.18-.32c0-.07.08-.16.14-.17.35-.03.6-.33.57-.69-.03-.35-.32-.62-.68-.58-.37.04-.71.2-.95.5-.24.3-.36.67-.33,1.05.03.47.26.88.61,1.19.36.3.81.44,1.27.4.59-.05,1.11-.33,1.51-.79.39-.46.57-1.04.51-1.63,0-.13-.04-.26-.06-.4.13.05.25.07.4.09h.19c.53,0,1.03-.17,1.43-.51.46-.39.74-.92.78-1.53.05-.46-.09-.91-.4-1.27-.3-.36-.72-.58-1.18-.63-.37-.03-.75.09-1.04.33-.3.24-.47.58-.5.96-.04.35.22.66.58.68.34.04.64-.22.69-.57,0-.07.08-.13.16-.13.12,0,.24.07.32.17.09.09.12.21.12.34-.02.26-.13.5-.34.66-.2.17-.44.24-.7.23-.9-.08-1.57-.88-1.49-1.79.12-1.44,1.4-2.49,2.83-2.39,2.13.2,3.69,2.03,3.64,4.15l-6.71,6.74c-2.1.07-3.94-1.53-4.12-3.67M513.64,146.99l.08.02.16-.02,6.68,6.71c.07,2.14-1.51,3.98-3.64,4.16-1.43.14-2.71-.94-2.83-2.38-.09-.89.59-1.7,1.49-1.78.26-.03.5.06.69.22.2.17.33.4.34.65.02.14-.03.25-.1.35-.08.11-.2.16-.34.17-.06,0-.14-.06-.15-.13-.04-.35-.33-.62-.68-.59-.35.04-.61.36-.58.7.04.38.2.72.51.97.29.24.65.35,1.03.32.46-.04.88-.25,1.18-.62.3-.36.44-.82.4-1.28-.04-.59-.32-1.13-.78-1.52s-1.01-.57-1.62-.51c-.14,0-.25.03-.38.08.02-.14.06-.26.06-.4.07-.61-.12-1.18-.51-1.65-.39-.45-.91-.73-1.51-.78-.46-.06-.91.1-1.27.4-.36.3-.58.73-.61,1.19-.04.37.08.74.33,1.04.24.29.58.47.95.5.36.05.65-.22.68-.57.03-.36-.22-.66-.57-.69-.06,0-.14-.09-.14-.17.01-.13.08-.24.18-.33.1-.08.21-.12.35-.1.26.02.49.14.64.33.18.19.25.45.22.71-.07.91-.85,1.56-1.76,1.5-1.43-.13-2.51-1.4-2.38-2.86.18-2.07,1.88-3.6,3.91-3.65"/>
  <path class="st0" d="M521.19,149.94c1.96,0,3.56-1.6,3.56-3.58s-1.6-3.58-3.56-3.58-3.57,1.6-3.57,3.58,1.6,3.58,3.57,3.58M521.19,144.04c1.26,0,2.28,1.04,2.28,2.31s-1.02,2.29-2.28,2.29-2.3-1.01-2.3-2.29,1.03-2.31,2.3-2.31"/>
  <rect class="st0" x="453.88" y="145.48" width="46.84" height="2.14"/>
</svg>